<svg width="60" height="60" viewBox="0 0 60 60" fill="none" xmlns="http://www.w3.org/2000/svg">
<g clip-path="url(#clip0_44_41)">
<path d="M40.3242 28.6523C39.75 28.1602 39.0352 27.9141 38.1914 27.9141C37.2773 27.9141 36.5625 28.1719 36.0469 28.6992C35.543 29.2266 35.2266 29.9297 35.0859 30.8203H41.2617C41.2148 29.8711 40.8867 29.1563 40.3242 28.6523Z" fill="black"/>
<path d="M25.1133 31.1836C24.668 30.9844 24.0586 30.8789 23.2617 30.8672H18.6914V35.8125H23.2031C24.0117 35.8125 24.6328 35.707 25.0781 35.4844C25.8984 35.0742 26.2969 34.3125 26.2969 33.1758C26.2969 32.2148 25.8984 31.5469 25.1133 31.1836Z" fill="black"/>
<path d="M30 0C13.4297 0 0 13.4297 0 30C0 46.5703 13.4297 60 30 60C46.5703 60 60 46.5703 60 30C60 13.4297 46.5703 0 30 0ZM34.1719 21.3633H42.1172V23.6719H34.1719V21.3633ZM29.3789 36.3984C29.0273 36.9727 28.5938 37.4648 28.0664 37.8516C27.4805 38.3086 26.7773 38.6133 25.9688 38.7891C25.1602 38.9531 24.293 39.0352 23.3438 39.0352H15V20.4961H23.9648C26.2266 20.5312 27.832 21.1875 28.7695 22.4766C29.332 23.2617 29.6133 24.2109 29.6133 25.3125C29.6133 26.4375 29.332 27.3516 28.7578 28.043C28.4414 28.4297 27.9609 28.7812 27.3398 29.0977C28.2891 29.4492 29.0039 29.9883 29.4844 30.7383C29.9648 31.4883 30.2109 32.3906 30.2109 33.457C30.2109 34.5352 29.9297 35.5195 29.3789 36.3984ZM45 33.1875H35.0156C35.0742 34.5586 35.543 35.5312 36.4453 36.082C36.9961 36.4219 37.6523 36.5977 38.4258 36.5977C39.2344 36.5977 39.9023 36.3867 40.418 35.9648C40.6992 35.7422 40.9453 35.4258 41.1562 35.0156H44.8125C44.7188 35.8242 44.2734 36.6562 43.4883 37.5C42.2578 38.8359 40.5469 39.5039 38.332 39.5039C36.5039 39.5039 34.8984 38.9414 33.5039 37.8164C32.1094 36.6914 31.4062 34.8633 31.4062 32.332C31.4062 29.9531 32.0391 28.1367 33.293 26.8711C34.5586 25.6055 36.1875 24.9727 38.1914 24.9727C39.3867 24.9727 40.4648 25.1836 41.4141 25.6172C42.375 26.0391 43.1602 26.7188 43.7812 27.6445C44.3438 28.4531 44.707 29.4023 44.8711 30.4805C44.9766 31.1016 45.0117 32.0039 45 33.1875Z" fill="black"/>
<path d="M25.1719 27.3398C25.6758 27.0352 25.9219 26.4844 25.9219 25.7109C25.9219 24.8437 25.5937 24.2812 24.9258 24C24.3516 23.8125 23.625 23.707 22.7344 23.707H18.7031V27.7969H23.2031C24.0117 27.8086 24.6562 27.6562 25.1719 27.3398Z" fill="black"/>
</g>
<defs>
<clipPath id="clip0_44_41">
<rect width="60" height="60" fill="white"/>
</clipPath>
</defs>
</svg>
