<svg width="60" height="60" viewBox="0 0 60 60" fill="none" xmlns="http://www.w3.org/2000/svg">
<g clip-path="url(#clip0_44_47)">
<path d="M30 0C13.4297 0 0 13.4297 0 30C0 46.5703 13.4297 60 30 60C46.5703 60 60 46.5703 60 30C60 13.4297 46.5703 0 30 0ZM21.6094 42.5508H15.7617V23.8359H21.6094V42.5508ZM18.5273 21.4922H18.4805C16.3594 21.4922 14.9883 20.0625 14.9883 18.2461C14.9883 16.3945 16.4062 15 18.5625 15C20.7188 15 22.043 16.3945 22.0898 18.2461C22.1016 20.0508 20.7305 21.4922 18.5273 21.4922ZM45 42.5508H38.3672V32.8711C38.3672 30.3398 37.3359 28.6055 35.0508 28.6055C33.3047 28.6055 32.332 29.7773 31.8867 30.9023C31.7227 31.3008 31.7461 31.8633 31.7461 32.4375V42.5508H25.1719C25.1719 42.5508 25.2539 25.3945 25.1719 23.8359H31.7461V26.7773C32.1328 25.4883 34.2305 23.6602 37.582 23.6602C41.7422 23.6602 45 26.3555 45 32.1445V42.5508Z" fill="black"/>
</g>
<defs>
<clipPath id="clip0_44_47">
<rect width="60" height="60" fill="white"/>
</clipPath>
</defs>
</svg>
