<svg width="560" height="1024" viewBox="0 0 560 1024" fill="none" xmlns="http://www.w3.org/2000/svg">
<rect width="560" height="1024" fill="white"/>
<circle cx="397" cy="119" r="10" fill="#FCE7F3"/>
<circle cx="397" cy="149" r="10" fill="#FCE7F3"/>
<circle cx="397" cy="179" r="10" fill="#FCE7F3"/>
<circle cx="397" cy="209" r="10" fill="#FCE7F3"/>
<circle cx="397" cy="239" r="10" fill="#FCE7F3"/>
<circle cx="427" cy="239" r="10" fill="#FCE7F3"/>
<circle cx="427" cy="119" r="10" fill="#FCE7F3"/>
<circle cx="457" cy="119" r="10" fill="#FCE7F3"/>
<circle cx="457" cy="149" r="10" fill="#FCE7F3"/>
<circle cx="457" cy="179" r="10" fill="#FCE7F3"/>
<circle cx="457" cy="209" r="10" fill="#FCE7F3"/>
<circle cx="457" cy="239" r="10" fill="#FCE7F3"/>
<circle cx="487" cy="119" r="10" fill="#FCE7F3"/>
<circle cx="487" cy="149" r="10" fill="#FCE7F3"/>
<circle cx="487" cy="179" r="10" fill="#FCE7F3"/>
<circle cx="487" cy="209" r="10" fill="#FCE7F3"/>
<circle cx="487" cy="239" r="10" fill="#FCE7F3"/>
<circle cx="517" cy="119" r="10" fill="#FCE7F3"/>
<circle cx="517" cy="149" r="10" fill="#FCE7F3"/>
<circle cx="517" cy="179" r="10" fill="#FCE7F3"/>
<circle cx="517" cy="209" r="10" fill="#FCE7F3"/>
<circle cx="517" cy="239" r="10" fill="#FCE7F3"/>
<circle cx="427" cy="149" r="10" fill="#FCE7F3"/>
<circle cx="427" cy="179" r="10" fill="#FCE7F3"/>
<circle cx="427" cy="209" r="10" fill="#FCE7F3"/>
<ellipse cx="378.643" cy="732.121" rx="10.6429" ry="10.1211" fill="#FEF9C3"/>
<ellipse cx="378.643" cy="762.485" rx="10.6429" ry="10.1211" fill="#FEF9C3"/>
<ellipse cx="378.643" cy="792.848" rx="10.6429" ry="10.1211" fill="#FEF9C3"/>
<ellipse cx="378.643" cy="823.211" rx="10.6429" ry="10.1211" fill="#FEF9C3"/>
<ellipse cx="378.643" cy="853.575" rx="10.6429" ry="10.1211" fill="#FEF9C3"/>
<ellipse cx="410.571" cy="853.575" rx="10.6429" ry="10.1211" fill="#FEF9C3"/>
<ellipse cx="410.571" cy="732.121" rx="10.6429" ry="10.1211" fill="#FEF9C3"/>
<ellipse cx="442.5" cy="732.121" rx="10.6429" ry="10.1211" fill="#FEF9C3"/>
<ellipse cx="442.5" cy="762.485" rx="10.6429" ry="10.1211" fill="#FEF9C3"/>
<ellipse cx="442.5" cy="792.848" rx="10.6429" ry="10.1211" fill="#FEF9C3"/>
<ellipse cx="442.5" cy="823.211" rx="10.6429" ry="10.1211" fill="#FEF9C3"/>
<ellipse cx="442.5" cy="853.575" rx="10.6429" ry="10.1211" fill="#FEF9C3"/>
<ellipse cx="474.429" cy="732.121" rx="10.6429" ry="10.1211" fill="#FEF9C3"/>
<ellipse cx="474.429" cy="762.485" rx="10.6429" ry="10.1211" fill="#FEF9C3"/>
<ellipse cx="474.429" cy="792.848" rx="10.6429" ry="10.1211" fill="#FEF9C3"/>
<ellipse cx="474.429" cy="823.211" rx="10.6429" ry="10.1211" fill="#FEF9C3"/>
<ellipse cx="474.429" cy="853.575" rx="10.6429" ry="10.1211" fill="#FEF9C3"/>
<ellipse cx="506.357" cy="732.121" rx="10.6429" ry="10.1211" fill="#FEF9C3"/>
<ellipse cx="506.357" cy="762.485" rx="10.6429" ry="10.1211" fill="#FEF9C3"/>
<ellipse cx="506.357" cy="792.848" rx="10.6429" ry="10.1211" fill="#FEF9C3"/>
<ellipse cx="506.357" cy="823.211" rx="10.6429" ry="10.1211" fill="#FEF9C3"/>
<ellipse cx="506.357" cy="853.575" rx="10.6429" ry="10.1211" fill="#FEF9C3"/>
<ellipse cx="410.571" cy="762.485" rx="10.6429" ry="10.1211" fill="#FEF9C3"/>
<ellipse cx="410.571" cy="792.848" rx="10.6429" ry="10.1211" fill="#FEF9C3"/>
<ellipse cx="410.571" cy="823.211" rx="10.6429" ry="10.1211" fill="#FEF9C3"/>
<ellipse cx="38.5714" cy="53.8571" rx="14.5714" ry="13.8571" fill="#DCFCE7"/>
<ellipse cx="38.5714" cy="95.4286" rx="14.5714" ry="13.8571" fill="#DCFCE7"/>
<ellipse cx="38.5714" cy="137" rx="14.5714" ry="13.8571" fill="#DCFCE7"/>
<ellipse cx="38.5714" cy="178.571" rx="14.5714" ry="13.8571" fill="#DCFCE7"/>
<ellipse cx="38.5714" cy="220.143" rx="14.5714" ry="13.8571" fill="#DCFCE7"/>
<ellipse cx="82.2857" cy="220.143" rx="14.5714" ry="13.8571" fill="#DCFCE7"/>
<ellipse cx="82.2857" cy="53.8571" rx="14.5714" ry="13.8571" fill="#DCFCE7"/>
<ellipse cx="126" cy="53.8571" rx="14.5714" ry="13.8571" fill="#DCFCE7"/>
<ellipse cx="126" cy="95.4286" rx="14.5714" ry="13.8571" fill="#DCFCE7"/>
<ellipse cx="126" cy="137" rx="14.5714" ry="13.8571" fill="#DCFCE7"/>
<ellipse cx="126" cy="178.571" rx="14.5714" ry="13.8571" fill="#DCFCE7"/>
<ellipse cx="126" cy="220.143" rx="14.5714" ry="13.8571" fill="#DCFCE7"/>
<ellipse cx="169.714" cy="53.8571" rx="14.5714" ry="13.8571" fill="#DCFCE7"/>
<ellipse cx="169.714" cy="95.4286" rx="14.5714" ry="13.8571" fill="#DCFCE7"/>
<ellipse cx="169.714" cy="137" rx="14.5714" ry="13.8571" fill="#DCFCE7"/>
<ellipse cx="169.714" cy="178.571" rx="14.5714" ry="13.8571" fill="#DCFCE7"/>
<ellipse cx="169.714" cy="220.143" rx="14.5714" ry="13.8571" fill="#DCFCE7"/>
<ellipse cx="213.429" cy="53.8571" rx="14.5714" ry="13.8571" fill="#DCFCE7"/>
<ellipse cx="213.429" cy="95.4286" rx="14.5714" ry="13.8571" fill="#DCFCE7"/>
<ellipse cx="213.429" cy="137" rx="14.5714" ry="13.8571" fill="#DCFCE7"/>
<ellipse cx="213.429" cy="178.571" rx="14.5714" ry="13.8571" fill="#DCFCE7"/>
<ellipse cx="213.429" cy="220.143" rx="14.5714" ry="13.8571" fill="#DCFCE7"/>
<ellipse cx="82.2857" cy="95.4286" rx="14.5714" ry="13.8571" fill="#DCFCE7"/>
<ellipse cx="82.2857" cy="137" rx="14.5714" ry="13.8571" fill="#DCFCE7"/>
<ellipse cx="82.2857" cy="178.571" rx="14.5714" ry="13.8571" fill="#DCFCE7"/>
</svg>
