<svg width="1440" height="1024" viewBox="0 0 1440 1024" fill="none" xmlns="http://www.w3.org/2000/svg">
<rect width="1440" height="1024" fill="white"/>
<circle cx="135" cy="244" r="10" fill="#FCE7F3"/>
<circle cx="135" cy="274" r="10" fill="#FCE7F3"/>
<circle cx="135" cy="304" r="10" fill="#FCE7F3"/>
<circle cx="135" cy="334" r="10" fill="#FCE7F3"/>
<circle cx="135" cy="364" r="10" fill="#FCE7F3"/>
<circle cx="165" cy="364" r="10" fill="#FCE7F3"/>
<circle cx="165" cy="244" r="10" fill="#FCE7F3"/>
<circle cx="195" cy="244" r="10" fill="#FCE7F3"/>
<circle cx="195" cy="274" r="10" fill="#FCE7F3"/>
<circle cx="195" cy="304" r="10" fill="#FCE7F3"/>
<circle cx="195" cy="334" r="10" fill="#FCE7F3"/>
<circle cx="195" cy="364" r="10" fill="#FCE7F3"/>
<circle cx="225" cy="244" r="10" fill="#FCE7F3"/>
<circle cx="225" cy="274" r="10" fill="#FCE7F3"/>
<circle cx="225" cy="304" r="10" fill="#FCE7F3"/>
<circle cx="225" cy="334" r="10" fill="#FCE7F3"/>
<circle cx="225" cy="364" r="10" fill="#FCE7F3"/>
<circle cx="255" cy="244" r="10" fill="#FCE7F3"/>
<circle cx="255" cy="274" r="10" fill="#FCE7F3"/>
<circle cx="255" cy="304" r="10" fill="#FCE7F3"/>
<circle cx="255" cy="334" r="10" fill="#FCE7F3"/>
<circle cx="255" cy="364" r="10" fill="#FCE7F3"/>
<circle cx="165" cy="274" r="10" fill="#FCE7F3"/>
<circle cx="165" cy="304" r="10" fill="#FCE7F3"/>
<circle cx="165" cy="334" r="10" fill="#FCE7F3"/>
<ellipse cx="1122.34" cy="563.214" rx="20.2047" ry="19.2143" fill="#FEF9C3"/>
<ellipse cx="1122.34" cy="620.857" rx="20.2047" ry="19.2143" fill="#FEF9C3"/>
<ellipse cx="1122.34" cy="678.5" rx="20.2047" ry="19.2143" fill="#FEF9C3"/>
<ellipse cx="1122.34" cy="736.143" rx="20.2047" ry="19.2143" fill="#FEF9C3"/>
<ellipse cx="1122.34" cy="793.786" rx="20.2047" ry="19.2143" fill="#FEF9C3"/>
<ellipse cx="1182.95" cy="793.786" rx="20.2047" ry="19.2143" fill="#FEF9C3"/>
<ellipse cx="1182.95" cy="563.214" rx="20.2047" ry="19.2143" fill="#FEF9C3"/>
<ellipse cx="1243.57" cy="563.214" rx="20.2047" ry="19.2143" fill="#FEF9C3"/>
<ellipse cx="1243.57" cy="620.857" rx="20.2047" ry="19.2143" fill="#FEF9C3"/>
<ellipse cx="1243.57" cy="678.5" rx="20.2047" ry="19.2143" fill="#FEF9C3"/>
<ellipse cx="1243.57" cy="736.143" rx="20.2047" ry="19.2143" fill="#FEF9C3"/>
<ellipse cx="1243.57" cy="793.786" rx="20.2047" ry="19.2143" fill="#FEF9C3"/>
<ellipse cx="1304.18" cy="563.214" rx="20.2047" ry="19.2143" fill="#FEF9C3"/>
<ellipse cx="1304.18" cy="620.857" rx="20.2047" ry="19.2143" fill="#FEF9C3"/>
<ellipse cx="1304.18" cy="678.5" rx="20.2047" ry="19.2143" fill="#FEF9C3"/>
<ellipse cx="1304.18" cy="736.143" rx="20.2047" ry="19.2143" fill="#FEF9C3"/>
<ellipse cx="1304.18" cy="793.786" rx="20.2047" ry="19.2143" fill="#FEF9C3"/>
<ellipse cx="1364.8" cy="563.214" rx="20.2047" ry="19.2143" fill="#FEF9C3"/>
<ellipse cx="1364.8" cy="620.857" rx="20.2047" ry="19.2143" fill="#FEF9C3"/>
<ellipse cx="1364.8" cy="678.5" rx="20.2047" ry="19.2143" fill="#FEF9C3"/>
<ellipse cx="1364.8" cy="736.143" rx="20.2047" ry="19.2143" fill="#FEF9C3"/>
<ellipse cx="1364.8" cy="793.786" rx="20.2047" ry="19.2143" fill="#FEF9C3"/>
<ellipse cx="1182.95" cy="620.857" rx="20.2047" ry="19.2143" fill="#FEF9C3"/>
<ellipse cx="1182.95" cy="678.5" rx="20.2047" ry="19.2143" fill="#FEF9C3"/>
<ellipse cx="1182.95" cy="736.143" rx="20.2047" ry="19.2143" fill="#FEF9C3"/>
<ellipse cx="271.571" cy="634.857" rx="14.5714" ry="13.8571" fill="#DCFCE7"/>
<ellipse cx="271.571" cy="676.429" rx="14.5714" ry="13.8571" fill="#DCFCE7"/>
<ellipse cx="271.571" cy="718" rx="14.5714" ry="13.8571" fill="#DCFCE7"/>
<ellipse cx="271.571" cy="759.571" rx="14.5714" ry="13.8571" fill="#DCFCE7"/>
<ellipse cx="271.571" cy="801.143" rx="14.5714" ry="13.8571" fill="#DCFCE7"/>
<ellipse cx="315.286" cy="801.143" rx="14.5714" ry="13.8571" fill="#DCFCE7"/>
<ellipse cx="315.286" cy="634.857" rx="14.5714" ry="13.8571" fill="#DCFCE7"/>
<ellipse cx="359" cy="634.857" rx="14.5714" ry="13.8571" fill="#DCFCE7"/>
<ellipse cx="359" cy="676.429" rx="14.5714" ry="13.8571" fill="#DCFCE7"/>
<ellipse cx="359" cy="718" rx="14.5714" ry="13.8571" fill="#DCFCE7"/>
<ellipse cx="359" cy="759.571" rx="14.5714" ry="13.8571" fill="#DCFCE7"/>
<ellipse cx="359" cy="801.143" rx="14.5714" ry="13.8571" fill="#DCFCE7"/>
<ellipse cx="402.714" cy="634.857" rx="14.5714" ry="13.8571" fill="#DCFCE7"/>
<ellipse cx="402.714" cy="676.429" rx="14.5714" ry="13.8571" fill="#DCFCE7"/>
<ellipse cx="402.714" cy="718" rx="14.5714" ry="13.8571" fill="#DCFCE7"/>
<ellipse cx="402.714" cy="759.571" rx="14.5714" ry="13.8571" fill="#DCFCE7"/>
<ellipse cx="402.714" cy="801.143" rx="14.5714" ry="13.8571" fill="#DCFCE7"/>
<ellipse cx="446.429" cy="634.857" rx="14.5714" ry="13.8571" fill="#DCFCE7"/>
<ellipse cx="446.429" cy="676.429" rx="14.5714" ry="13.8571" fill="#DCFCE7"/>
<ellipse cx="446.429" cy="718" rx="14.5714" ry="13.8571" fill="#DCFCE7"/>
<ellipse cx="446.429" cy="759.571" rx="14.5714" ry="13.8571" fill="#DCFCE7"/>
<ellipse cx="446.429" cy="801.143" rx="14.5714" ry="13.8571" fill="#DCFCE7"/>
<ellipse cx="315.286" cy="676.429" rx="14.5714" ry="13.8571" fill="#DCFCE7"/>
<ellipse cx="315.286" cy="718" rx="14.5714" ry="13.8571" fill="#DCFCE7"/>
<ellipse cx="315.286" cy="759.571" rx="14.5714" ry="13.8571" fill="#DCFCE7"/>
</svg>
